<?xml version="1.0" encoding="UTF-8" standalone="no"?>
<svg xmlns="http://www.w3.org/2000/svg" height="32" viewBox="0 0 8.4666665 8.4666669" width="32" version="1.1">
 <path style="fill:#b8abab" d="m4.718 0.2004a3.679 4.034 0 0 0 -0.5619 0.0507 3.768 3.986 0 0 1 0.05395 -0.00224 3.768 3.986 0 0 1 3.767 3.985 3.768 3.986 0 0 1 -3.767 3.986 3.768 3.986 0 0 1 -0.04276 -0.00204 3.679 4.034 0 0 0 0.5507 0.0509 3.679 4.034 0 0 0 3.679 -4.035 3.679 4.034 0 0 0 -3.679 -4.034z"/>
 <circle cx="3.904" style="stroke-linejoin:round;color-rendering:auto;color:#000000;isolation:auto;mix-blend-mode:normal;paint-order:stroke fill markers;shape-rendering:auto;solid-color:#000000;stroke:#000;stroke-linecap:round;image-rendering:auto;stroke-width:.2982;fill:#ffffff" r="3.829" cy="4.235"/>
</svg>
