<?xml version="1.0" encoding="UTF-8" standalone="no"?>
<svg xmlns="http://www.w3.org/2000/svg" height="32" viewBox="0 0 8.4666665 8.4666669" width="32" version="1.1">
 <rect style="stroke-linejoin:round;color-rendering:auto;color:#000000;isolation:auto;mix-blend-mode:normal;paint-order:stroke fill markers;shape-rendering:auto;solid-color:#000000;stroke:#000;stroke-linecap:round;image-rendering:auto;stroke-width:.2078;fill:#ffffff" ry=".9846" height="8.257" width="8.257" y=".1038" x=".1038"/>
 <path style="opacity:.2;color-rendering:auto;color:#000000;isolation:auto;mix-blend-mode:normal;paint-order:stroke fill markers;shape-rendering:auto;solid-color:#000000;image-rendering:auto;stroke-width:.2879;fill:#080808" d="m1.088 0.1038c-0.5455 0-0.9846 0.439-0.9846 0.9846v2.288c0-1.813 1.46-3.273 3.273-3.273zm4.002 0c1.813 0 3.273 1.46 3.273 3.273v-2.289c0-0.5455-0.439-0.9846-0.9846-0.9846zm-4.986 4.983v2.288c0 0.5455 0.439 0.9846 0.9846 0.9846h2.288c-1.813 0-3.273-1.46-3.273-3.273zm8.257 0c0 1.813-1.46 3.273-3.273 3.273h2.288c0.5455 0 0.9846-0.439 0.9846-0.9846z"/>
</svg>
